HIERARCHY
ROOT Hips
{
  OFFSET 71.7574 47.5266 353.468
  CHANNELS 6 Xposition Yposition Zposition Zrotation Xrotation Yrotation
  JOINT Spine
  {
    OFFSET 0 0 0
    CHANNELS 3 Zrotation Xrotation Yrotation
    JOINT Spine1
    {
      OFFSET 19 0 0
      CHANNELS 3 Zrotation Xrotation Yrotation
      JOINT Neck
      {
        OFFSET 22.5 0.6 0
        CHANNELS 3 Zrotation Xrotation Yrotation
        JOINT Head
        {
          OFFSET 14 0.0308777 0
          CHANNELS 3 Zrotation Xrotation Yrotation
          End Site
          {
            OFFSET 17 0 0
          }
        }
      }
      JOINT LeftShoulder
      {
        OFFSET 19.8 3.7 4.3
        CHANNELS 3 Zrotation Xrotation Yrotation
        JOINT LeftArm
        {
          OFFSET 8 0 0
          CHANNELS 3 Zrotation Xrotation Yrotation
          JOINT LeftForeArm
          {
            OFFSET 15.2 0 0
            CHANNELS 3 Zrotation Xrotation Yrotation
            JOINT LeftHand
            {
              OFFSET 17.8 0 0
              CHANNELS 3 Zrotation Xrotation Yrotation
              End Site
              {
                OFFSET 7.2 0 0
              }
            }
          }
        }
      }
      JOINT RightShoulder
      {
        OFFSET 19.8 3.7 -4.3
        CHANNELS 3 Zrotation Xrotation Yrotation
        JOINT RightArm
        {
          OFFSET 8 0 0.151654
          CHANNELS 3 Zrotation Xrotation Yrotation
          JOINT RightForeArm
          {
            OFFSET 15.2 0 0
            CHANNELS 3 Zrotation Xrotation Yrotation
            JOINT RightHand
            {
              OFFSET 17.8 0 0
              CHANNELS 3 Zrotation Xrotation Yrotation
              End Site
              {
                OFFSET 7.2 0 0
              }
            }
          }
        }
      }
    }
  }
  JOINT LeftUpLeg
  {
    OFFSET 5.98425 -7.666 4.78879
    CHANNELS 3 Zrotation Xrotation Yrotation
    JOINT LeftLeg
    {
      OFFSET 16 0 0
      CHANNELS 3 Zrotation Xrotation Yrotation
      JOINT LeftFoot
      {
        OFFSET 18 0 0
        CHANNELS 3 Zrotation Xrotation Yrotation
        End Site
        {
          OFFSET 0 -10.8 0
        }
      }
    }
  }
  JOINT RightUpLeg
  {
    OFFSET 5.98425 -7.66598 -4.78879
    CHANNELS 3 Zrotation Xrotation Yrotation
    JOINT RightLeg
    {
      OFFSET 16 0 0
      CHANNELS 3 Zrotation Xrotation Yrotation
      JOINT RightFoot
      {
        OFFSET 18 0 0
        CHANNELS 3 Zrotation Xrotation Yrotation
        End Site
        {
          OFFSET 0 -10.8 0
        }
      }
    }
  }
  JOINT Tail
  {
    OFFSET 6.83696 -0.722574 0
    CHANNELS 3 Zrotation Xrotation Yrotation
    JOINT Tail1
    {
      OFFSET 12 0 0
      CHANNELS 3 Zrotation Xrotation Yrotation
      End Site
      {
        OFFSET 12 0 0
      }
    }
  }
}
MOTION
Frames:	21
Frame Time:	0.0166667
33.2626 15.3464 196.884 -4.92408 -29.4388 26.7595 -136.482 -11.8897 -8.74134 -48.3117 0.0818275 -11.2253 -6.05535 0.42595 -28.0253 -104.44 75.8275 127.629 -107.016 -32.0768 -137.792 132.413 -5.70958 -130.755 -88.5289 -20.4354 17.1468 3.40955 0.401599 -12.2505 71.8995 -33.2311 41.0023 56.7055 3.56713 -32.7494 -94.6669 26.3249 -22.7313 11.715 0.246837 -2.17171 -107.723 35.407 -31.4954 129.78 -5.82796 -3.47342 4.59114 0.344235 3.84722 157.983 7.84519 26.5334 144.798 -23.419 3.04904 -3.00786 -13.5697 -33.8515 -10.2211 33.05 -8.0067 8.06344 -4.29088 5.42849 
33.2601 15.3428 196.879 -4.97036 -29.5377 26.81 -136.346 -11.8028 -8.53436 -48.3295 0.17002 -11.3558 -6.07002 0.388577 -28.115 -104.264 75.8097 127.461 -107.046 -32.0954 -137.846 132.433 -5.6683 -130.792 -88.4574 -20.4004 17.162 3.34031 0.398582 -12.2619 71.8853 -33.2874 41.0823 56.7401 3.52908 -32.7981 -94.591 26.3371 -22.7365 11.6472 0.246307 -2.15984 -107.791 35.454 -31.3668 129.818 -5.85677 -3.47296 4.66192 0.351384 3.84813 158.025 7.73937 26.5735 144.799 -23.4011 3.05634 -2.98907 -13.5859 -33.8834 -10.0668 33.1187 -8.07086 8.05794 -4.29044 5.414 
33.2641 15.3485 196.883 -4.93291 -29.4201 26.8406 -136.431 -11.8246 -8.66711 -48.3562 0.096635 -11.1878 -5.97086 0.489176 -28.1306 -104.694 75.925 127.656 -107.056 -32.1017 -137.864 132.292 -5.58768 -130.837 -88.475 -20.5773 17.2334 3.40573 0.397941 -12.2906 71.8581 -33.2905 41.0087 56.8565 3.65785 -33.0636 -94.537 26.4383 -22.8175 11.7798 0.245799 -2.1255 -107.866 35.5027 -31.4132 129.79 -5.94023 -3.473 4.74232 0.357044 3.85174 157.92 7.95552 26.6295 144.806 -23.3171 3.07275 -2.9707 -13.5574 -33.7652 -10.1839 33.0509 -8.10976 8.08426 -4.28952 5.42355 
33.2826 15.357 196.886 -4.89273 -29.3278 26.8629 -136.448 -11.8435 -8.70076 -48.4807 0.0829033 -11.1501 -5.82042 0.562856 -28.0332 -105.08 76.0646 127.908 -107.088 -32.1298 -137.9 132.193 -5.52555 -130.881 -88.4614 -20.6497 17.2849 3.42539 0.398871 -12.3286 71.8986 -33.2093 40.9524 56.6548 3.72152 -33.0109 -94.5071 26.3358 -22.8006 11.7794 0.245562 -2.00609 -107.849 35.5297 -31.4891 129.755 -5.9481 -3.47273 4.70069 0.35396 3.85634 157.811 8.06714 26.6649 144.81 -23.2693 3.08328 -2.947 -13.5527 -33.7211 -10.3017 32.9973 -8.10098 8.11106 -4.28845 5.42359 
33.3016 15.3561 196.889 -4.79393 -29.3372 26.9502 -136.372 -11.831 -8.57212 -48.6569 0.0912572 -11.1985 -5.84985 0.655159 -28.1838 -105.277 75.8153 128.351 -107.099 -32.1607 -137.865 132.179 -5.48666 -130.832 -88.4161 -20.6591 17.3146 3.47754 0.400625 -12.3307 71.8908 -33.2242 40.9615 56.6241 3.72213 -32.9128 -94.5067 26.3163 -22.7838 11.8835 0.245778 -2.15111 -107.804 35.5107 -31.5008 129.712 -5.94246 -3.47253 4.39525 0.333871 3.8597 157.685 8.04268 26.6851 144.797 -23.2052 3.0956 -2.89717 -13.5676 -33.7124 -10.3612 33.0515 -8.13068 8.11734 -4.28731 5.41199 
33.3065 15.3489 196.879 -4.75473 -29.3718 26.992 -136.258 -11.8301 -8.45202 -48.7761 0.104171 -11.2698 -5.86041 0.676316 -28.1504 -105.382 75.7507 128.415 -107.146 -32.2343 -137.849 132.209 -5.43632 -130.776 -88.3381 -20.6687 17.318 3.53338 0.40446 -12.4062 71.849 -33.2947 40.9907 56.6536 3.77098 -32.9864 -94.3839 26.3749 -22.8073 11.8769 0.246744 -2.17891 -107.783 35.52 -31.4406 129.687 -5.91794 -3.47236 4.27993 0.325291 3.85986 157.928 7.94185 26.6473 144.743 -23.3836 3.08994 -3.0802 -13.5174 -33.7604 -10.3532 33.0953 -8.14188 8.12059 -4.28605 5.40945 
33.272 15.3298 196.895 -4.76914 -29.3239 26.9705 -136.189 -11.8526 -8.34254 -48.9148 0.170454 -11.4482 -5.8153 0.730081 -27.9885 -105.772 75.617 128.616 -107.195 -32.3283 -137.792 132.121 -5.48155 -130.774 -88.3718 -20.6903 17.3429 3.61001 0.384218 -12.2868 71.8426 -33.2764 40.9326 56.615 3.80094 -32.8664 -94.4464 26.3624 -22.795 11.905 0.248697 -2.09567 -107.686 35.5084 -31.5613 129.678 -5.91224 -3.47245 4.26571 0.335518 3.87996 157.578 7.95141 26.6955 144.758 -23.1773 3.10204 -2.80678 -13.635 -33.8326 -10.3824 33.0515 -8.14105 8.14318 -4.28481 5.40645 
33.2756 15.3265 196.899 -4.77917 -29.2928 26.9707 -136.103 -11.8758 -8.21163 -49.0827 0.229702 -11.6251 -5.73307 0.715954 -27.6863 -105.967 75.6066 128.69 -107.227 -32.3993 -137.732 132.152 -5.49119 -130.77 -88.3213 -20.7203 17.3365 3.70482 0.382532 -12.3095 71.8862 -33.2013 40.8986 56.6124 3.92133 -32.914 -94.4156 26.3606 -22.8273 12.02 0.253493 -2.06172 -107.723 35.5502 -31.5679 129.698 -5.97014 -3.47308 4.29789 0.337938 3.88718 157.422 8.01774 26.7309 144.795 -23.067 3.11014 -2.71019 -13.6589 -33.7981 -10.389 33.0212 -8.14405 8.15445 -4.28367 5.40301 
33.3219 15.33 196.889 -4.86785 -29.3498 26.9289 -135.945 -11.9129 -8.15966 -49.2045 0.229251 -11.6748 -5.72711 0.700322 -27.632 -106.046 75.2686 128.851 -107.2 -32.3726 -137.708 132.321 -5.4812 -130.757 -88.2438 -20.5259 17.2539 3.70573 0.380212 -12.3221 71.8989 -33.1619 40.8505 56.5602 3.93858 -32.8376 -94.4184 26.1203 -22.7714 11.9683 0.268689 -2.23101 -107.623 35.6018 -31.5752 129.746 -5.89191 -3.47298 4.2561 0.329119 3.86955 157.494 7.96322 26.7275 144.828 -23.0854 3.10517 -2.717 -13.6613 -33.8136 -10.2735 33.0261 -8.12766 8.14132 -4.28271 5.40106 
33.3368 15.3237 196.883 -4.8397 -29.3685 26.9011 -136.051 -11.9332 -8.30165 -49.0654 0.172133 -11.556 -5.94895 0.63618 -27.8393 -105.634 74.7221 128.878 -107.143 -32.2834 -137.729 132.415 -5.51119 -130.682 -88.3089 -20.4311 17.1886 3.68313 0.377801 -12.3732 71.8415 -33.2386 40.8472 56.547 3.80236 -32.6593 -94.4835 26.1182 -22.7122 11.8908 0.258114 -2.22101 -107.54 35.528 -31.5965 129.713 -5.87189 -3.47338 4.13308 0.315464 3.86098 157.593 8.02873 26.6753 144.798 -23.1131 3.09568 -2.77207 -13.6179 -33.7336 -10.2531 33.0304 -8.09428 8.10619 -4.282 5.40251 
33.2991 15.3299 196.878 -4.85105 -29.3827 26.8209 -136.21 -11.932 -8.4575 -48.8055 0.162611 -11.4928 -5.98211 0.452682 -27.9465 -105.214 74.5249 128.24 -107.097 -32.1924 -137.789 132.484 -5.53016 -130.711 -88.3535 -20.3758 17.1527 3.62044 0.37731 -12.2724 71.8163 -33.2668 40.8341 56.7112 3.77746 -32.6562 -94.5107 26.3568 -22.7778 11.8574 0.245276 -2.09855 -107.546 35.4319 -31.577 129.689 -5.85895 -3.47394 4.31266 0.326485 3.85106 157.746 8.05428 26.5926 144.782 -23.1992 3.07398 -2.85864 -13.5785 -33.7042 -10.2597 33.0274 -8.04956 8.0671 -4.28158 5.41186 
33.2525 15.3393 196.883 -4.89422 -29.4366 26.7805 -136.331 -11.8775 -8.45852 -48.538 0.225189 -11.5676 -6.08177 0.325732 -28.0871 -104.778 74.3226 127.87 -107.061 -32.1341 -137.805 132.567 -5.66779 -130.821 -88.4679 -20.3134 17.0993 3.53099 0.380767 -12.1971 71.8606 -33.243 40.9132 56.8084 3.74076 -32.7345 -94.6181 26.3395 -22.7854 11.765 0.254835 -2.10435 -107.675 35.4132 -31.503 129.754 -5.82347 -3.47448 4.51257 0.340433 3.84983 157.917 7.82996 26.5313 144.799 -23.3849 3.05259 -2.97793 -13.5844 -33.8654 -10.1883 33.0517 -8.04759 8.04743 -4.28169 5.41724 
33.2486 15.3445 196.885 -4.9621 -29.4908 26.7538 -136.299 -11.8199 -8.42341 -48.4625 0.291595 -11.6113 -6.09562 0.219457 -28.0941 -104.392 74.4443 127.552 -107.014 -32.0627 -137.818 132.685 -5.71519 -130.86 -88.4614 -20.257 17.0627 3.46631 0.39095 -12.2212 71.8891 -33.246 41.0039 56.7669 3.63231 -32.6645 -94.637 26.3226 -22.7664 11.6955 0.256491 -2.098 -107.667 35.3742 -31.4956 129.753 -5.88785 -3.47575 4.57828 0.347426 3.85602 157.848 7.75441 26.5499 144.833 -23.3299 3.05067 -2.88078 -13.6324 -33.9116 -10.1256 33.076 -8.03581 8.04907 -4.28226 5.42687 
33.2791 15.3466 196.868 -4.96366 -29.4857 26.7512 -136.322 -11.8572 -8.59667 -48.4301 0.166214 -11.3623 -6.08819 0.331718 -28.1864 -104.628 74.563 127.817 -106.975 -32.0318 -137.764 132.655 -5.64717 -130.698 -88.4251 -20.2048 17.055 3.40891 0.392038 -12.2085 71.8226 -33.2914 40.906 56.8442 3.73443 -32.7932 -94.5516 26.435 -22.8354 11.8251 0.257868 -2.09328 -107.804 35.425 -31.3715 129.795 -5.93878 -3.47705 4.73683 0.353936 3.8432 157.92 7.9396 26.5597 144.834 -23.2951 3.05075 -2.93061 -13.5621 -33.733 -10.1542 33.0759 -8.0205 8.06645 -4.28322 5.43182 
33.292 15.3466 196.862 -4.95313 -29.4198 26.739 -136.391 -11.8796 -8.72355 -48.4133 0.109834 -11.2307 -5.96339 0.406022 -28.1227 -104.924 74.8791 127.881 -107.01 -32.0407 -137.854 132.52 -5.56315 -130.771 -88.4333 -20.3207 17.107 3.43211 0.39813 -12.2523 71.8329 -33.263 40.8749 56.6943 3.66209 -32.7062 -94.603 26.3123 -22.7525 11.7903 0.259661 -2.10559 -107.805 35.4532 -31.4221 129.784 -5.94216 -3.47815 4.79103 0.359766 3.84701 158.028 8.06506 26.5542 144.773 -23.339 3.05487 -3.00064 -13.5227 -33.684 -10.2252 33.0242 -7.99527 8.08219 -4.28448 5.42201 
33.2834 15.3531 196.868 -4.92623 -29.4136 26.7947 -136.418 -11.8166 -8.64552 -48.3868 0.159504 -11.2752 -5.91916 0.407016 -28.2685 -104.929 74.7061 127.967 -107.026 -32.0434 -137.899 132.463 -5.5444 -130.857 -88.4355 -20.465 17.1617 3.45586 0.402438 -12.2595 71.8691 -33.2554 40.9652 56.7103 3.68017 -32.8902 -94.5549 26.4335 -22.8012 11.8931 0.261711 -2.07005 -107.776 35.4557 -31.4856 129.751 -5.87804 -3.47892 4.6393 0.349604 3.85086 157.953 7.9586 26.5821 144.775 -23.3418 3.06323 -2.97462 -13.5603 -33.7804 -10.239 33.0476 -8.06589 8.09627 -4.28566 5.43395 
33.2604 15.3455 196.878 -4.86072 -29.4565 26.8996 -136.367 -11.7611 -8.48403 -48.4563 0.205669 -11.361 -5.82774 0.451991 -28.1586 -105.091 74.8989 128.105 -107.033 -32.0649 -137.871 132.409 -5.57007 -130.83 -88.4516 -20.4623 17.195 3.4335 0.396193 -12.2316 71.8838 -33.2691 41.0382 56.5985 3.58849 -32.7074 -94.6162 26.3045 -22.7338 11.7502 0.263831 -2.08372 -107.791 35.4522 -31.4698 129.721 -5.86734 -3.4814 4.47833 0.341066 3.85879 157.786 7.80194 26.6253 144.794 -23.2854 3.07763 -2.89396 -13.6152 -33.8694 -10.2271 33.1222 -8.13837 8.09552 -4.28691 5.42293 
33.2517 15.3297 196.882 -4.76653 -29.4727 26.9943 -136.287 -11.7724 -8.36703 -48.6106 0.1828 -11.3957 -5.86943 0.593159 -28.0691 -105.394 74.9573 128.603 -107.093 -32.181 -137.8 132.299 -5.56723 -130.715 -88.4246 -20.5002 17.2382 3.48411 0.387461 -12.2147 71.8212 -33.3251 40.9746 56.7406 3.71065 -32.7309 -94.5372 26.4521 -22.8382 11.8201 0.265875 -2.00664 -107.864 35.4825 -31.3548 129.678 -5.94668 -3.48538 4.4683 0.344235 3.86579 157.643 7.84276 26.6615 144.792 -23.1741 3.09396 -2.83 -13.6158 -33.7946 -10.2563 33.1817 -8.19929 8.08778 -4.28786 5.42341 
33.2841 15.3412 196.861 -4.76792 -29.3759 26.9452 -136.189 -11.8597 -8.43909 -48.8462 0.131275 -11.3406 -5.8077 0.688077 -27.9175 -105.801 74.9666 128.964 -107.159 -32.2759 -137.797 132.234 -5.43267 -130.723 -88.281 -20.6353 17.2974 3.55052 0.383715 -12.3513 71.8162 -33.295 40.8948 56.6378 3.88316 -32.8572 -94.3897 26.3454 -22.8374 11.9586 0.267623 -2.14945 -107.905 35.5192 -31.3526 129.673 -6.01375 -3.48952 4.5707 0.347446 3.86087 157.933 8.05891 26.6237 144.757 -23.3357 3.08328 -3.07076 -13.4893 -33.6531 -10.3441 33.091 -8.1428 8.11518 -4.28852 5.41087 
33.2948 15.3421 196.875 -4.7836 -29.2786 26.8881 -136.155 -11.9034 -8.49684 -49.0034 0.15122 -11.3567 -5.69764 0.718392 -27.7072 -106.084 75.0411 129.132 -107.197 -32.3264 -137.802 132.141 -5.40678 -130.71 -88.2882 -20.6802 17.339 3.58143 0.382277 -12.3461 71.8694 -33.2137 40.8759 56.5473 3.90599 -32.8443 -94.4351 26.3963 -22.8398 12.0823 0.268984 -2.03098 -107.664 35.4472 -31.6046 129.626 -6.01576 -3.4921 4.33196 0.339056 3.8844 157.607 8.12745 26.6615 144.755 -23.1567 3.09135 -2.81234 -13.5971 -33.7124 -10.4298 32.9937 -8.07303 8.14615 -4.2886 5.40804 
33.2923 15.3357 196.888 -4.70892 -29.2647 26.9572 -136.201 -11.8895 -8.34316 -49.016 0.201006 -11.5301 -5.82971 0.731295 -27.5196 -106.034 74.896 129.336 -107.219 -32.3867 -137.736 132.147 -5.45427 -130.675 -88.2962 -20.7202 17.3374 3.64257 0.382813 -12.3502 71.8741 -33.211 40.8839 56.6132 3.93369 -32.8433 -94.4795 26.3959 -22.8585 12.0447 0.269727 -2.02674 -107.676 35.4881 -31.6508 129.631 -5.89525 -3.49113 4.22045 0.32849 3.87534 157.482 8.08649 26.6771 144.766 -23.1145 3.10183 -2.78101 -13.6155 -33.7369 -10.4877 33.0197 -8.1045 8.14595 -4.2879 5.42038 
